<?xml version='1.0' encoding='utf-8'?>
<svg xmlns="http://www.w3.org/2000/svg" xmlns:xlink="http://www.w3.org/1999/xlink" width="297mm" height="210mm" clip-rule="evenodd" fill-rule="evenodd" image-rendering="optimizeQuality" shape-rendering="geometricPrecision" text-rendering="geometricPrecision" viewBox="0 0 297 210">
 <defs>
  <style type="text/css">
    .fil1 {fill:#1F1A17}
    .fil0 {fill:#4D4948}
    .fil3 {fill:#605D5C}
    .fil4 {fill:#838281}
    .fil9 {fill:#969594}
    .fil5 {fill:#AAA9A9}
    .fil8 {fill:#C2C1C1}
    .fil2 {fill:#1F1A17;fill-rule:nonzero}
    .fil7 {fill:url(#a)}
    .fil6 {fill:url(#b)}
  </style>
  <radialGradient id="a" cx="243.8" cy="64.15" r="29.815" gradientUnits="userSpaceOnUse">
   <stop stop-color="#DEDEDD" offset="0"/>
   <stop stop-color="#42929D" offset=".58039"/>
   <stop stop-color="#495F5F" offset="1"/>
  </radialGradient>
  <radialGradient id="b" cx="164.37" cy="65.592" r="37.833" gradientUnits="userSpaceOnUse" xlink:href="#a">
  </radialGradient>
 </defs>
    <path class="fil0" d="m257.17 78.224c-25.425 0.6549-45.464 1.6163-57.908 11.836-9.5921 7.8774-5.6537 34.768-4.5361 45.06 0.0982 4.3746 4.059 1.9785 3.8884-5.2517-0.1108-4.6946-1.3907-11.694-1.5142-17.592-0.1691-8.0828 1.2629-14.756 2.8489-16.652 2.462-2.9432 8.1624 2.3887 11.23 1.7887 13.532-3.4987 27.986-4.593 42.174-6.3816l3.8172-12.808z"/>
    <path class="fil1" d="m257.17 78.223c-25.425 0.6549-45.464 1.6166-57.908 11.836-9.5921 7.8774-5.6537 34.768-4.5361 45.06 0.0982 4.3746 4.059 1.9785 3.8884-5.2517-0.1108-4.6946-1.3907-11.694-1.5142-17.592-0.1691-8.0828 1.2629-14.756 2.8489-16.652 2.462-2.9432 8.1624 2.3887 11.23 1.7887 13.532-3.4987 27.986-4.593 42.174-6.3816l3.8173-12.808z"/>
    <path class="fil0" d="m257.01 78.74c-3.1359-0.1336-6.2722-0.0421-8.9172 0.8063-3.2305 1.0364-8.1417-0.559-11.628 0.4391-4.5556 1.3043-10.327 1.0726-13.654 2.872-4.4946 2.4306 5.3805 3.4639 7.1338 2.9938 7.3466-1.97 14.546-2.0832 21.717-3.7228 1.6621-0.38 3.1311-0.6672 4.6108-0.9138l0.7375-2.4746z"/>
    <path class="fil0" d="m197.76 103.59c-3.7039 2.9683-2.8553 14.933-3.2118 18.782-0.1551 1.6755 0.7401 4.2103 1.0462 5.9517 0.3763 2.1414 0.4422 3.3494 1.4023 4.7564 1.3833 2.0272 2.0474-5.5981 1.7009-6.4345-0.673-1.625-1.3869-9.1756-0.8759-10.89 1.0207-3.4246-1.1212-7.1553-0.0617-12.166z"/>
    <path class="fil2" d="m256.94 79.003c-25.156 0.651-44.98 1.6316-57.185 11.655-8.5551 7.0258-5.8714 30.333-4.5483 41.823 0.1223 1.0628 0.234 2.0323 0.2909 2.5562 0.0045 0.0415 0.0058 0.0824 0.0038 0.1228 0.0233 0.7862 0.159 1.231 0.3497 1.3753 0.0038 0.0029 0.017 0.0011 0.0377-0.0052 0.1293-0.0394 0.2868-0.1599 0.4613-0.3591 0.8205-0.936 1.5697-3.0806 1.4941-6.2862-0.0507-2.1533-0.357-4.8412-0.6809-7.6836-0.3718-3.2629-0.7667-6.7283-0.8332-9.9086-0.0815-3.892 0.2025-7.4606 0.6954-10.341 0.5609-3.2786 1.4142-5.7266 2.3313-6.8231 1.8238-2.1803 4.6702-0.9209 7.4314 0.3008 1.6048 0.7101 3.1761 1.4054 4.1998 1.2351l-1e-4 -4e-4c10.545-2.7263 21.631-3.9971 32.717-5.2676 3.3062-0.379 6.6126-0.758 9.8915-1.1736l-0.482 1.6174c-3.0774 0.3858-6.1567 0.7388-9.2358 1.0918-11.024 1.2635-22.049 2.5272-32.504 5.2302l-6e-4 -0.0021c-0.0151 0.0039-0.0305 0.0072-0.0461 0.0103-1.497 0.2927-3.3101-0.5094-5.1628-1.3292-2.2365-0.9896-4.5421-2.0097-5.6202-0.7209-0.75 0.8966-1.479 3.0813-1.9948 6.0963-0.4791 2.8003-0.7553 6.2666-0.6763 10.044 0.0648 3.0966 0.4563 6.5324 0.8249 9.7673 0.3271 2.8708 0.6365 5.5855 0.6893 7.825 0.0857 3.6342-0.8523 6.1666-1.8759 7.3342-0.3713 0.4236-0.7739 0.7005-1.174 0.8222-0.5089 0.1548-0.9951 0.0775-1.4165-0.2415-0.5454-0.413-0.9234-1.2643-0.9642-2.5666-0.1089-1.003-0.1943-1.7446-0.2865-2.5461-1.3549-11.766-4.103-35.633 5.1017-43.193 12.684-10.417 32.938-11.358 58.632-12.018l-0.4645 1.5585z"/>
   <path class="fil0" d="m269.29 64.504l-0.4119-7.9634c-2.3255-6.3502-19.96-6.0069-30.18-4.8398s-22.509 9.4946-31.004 10.126c-14.138 1.0506-19.968-6.0377-38.509-7.9522-27.854-2.876-60.488 2.3117-62.733 6.5105-35.339 11.521-63.263 20.022-75.947 38.82-8.9635 13.284 5.8259 45.104 11.004 57.427 1.7348 5.3766 5.7519 0.9512 2.8746-7.9319-1.8683-5.7679-6.0332-13.956-8.361-21.209-3.1899-9.9386-3.8789-18.723-2.6157-21.654 1.9609-4.5496 10.98-0.0544 14.555-1.9282 17.986-10.847 38.719-18.124 58.078-27.185 12.399-0.7607 10.443 28.396 22.409 43.944 5.844 7.5932 20.655 8.4905 31.17 7.7395 6.887-0.4919 24.703-3.4264 31.994-14.534 3.3688-5.1324 6.4809-11.42 8.0903-17.395 2.8689-10.652 3.355-20.313 9.0411-20.678 3.0006-0.1927 2.9562 4.573 4.8186 10.099 2.3944 7.1048 6.6869 16.004 11.39 22.923 3.8003 5.5907 12.706 8.2136 18.483 7.9424 4.8311-0.2267 14.531-4.5506 18.823-10.809 4.4279-6.4572 5.8818-23.272 5.4754-33.777-0.0937-2.424 1.6062-3.9648 1.5558-7.6744z"/>
   <path class="fil1" d="m110.8 57.945c-2.384 0.8079-3.9132 1.6421-4.3402 2.4408-35.339 11.521-63.263 20.022-75.947 38.82-8.9635 13.284 5.8259 45.104 11.004 57.427 1.7348 5.3766 5.7519 0.9512 2.8746-7.9319-1.8683-5.7679-6.0332-13.956-8.361-21.209-3.1899-9.9386-3.8789-18.723-2.6157-21.654 1.9609-4.5496 10.98-0.0544 14.555-1.9282 17.986-10.847 38.719-18.124 58.078-27.185 3.1874-0.1955 5.425 1.5891 7.1954 4.6081-0.2194-1.2361-0.4445-2.4823-0.6823-3.7508-1.8381-9.8047-3.4104-15.211-1.761-19.637z"/>
   <path class="fil3" d="m138.59 53.157c-0.9248 1.5854-7.8769 4.1602 0.1342 4.1602h23.619c6.2348 0 11.561 1.9959 17.446 2.4156 1.4819 0.1056 11.871 2.8792 7.381-1.6104-2.9231-2.9231-16.081-3.3525-20.801-4.5628-7.9191-2.0308-20.3-0.2684-27.779-0.4026z"/>
   <path class="fil4" d="m121.15 80.936c0-7.8698 1.9693-16.562 8.4546-19.056 0.8608-0.3311-3.6367 9.0092-4.2944 10.736-3.042 7.9855-1.0736 13.871-1.0736 21.875 0 2.2837 2.0319 8.0437-0.671 2.013-1.5452-3.4475-2.684-12.157-2.4156-15.567z"/>
   <path class="fil1" d="m187.31 70.872c2.1605-10.803 9.9121-3.5076 10.736 2.8182 1.1064 8.4939-0.0398 19.67-2.9524 27.243-1.9501 5.0702-2.3223 6.5595-6.3074 9.7966-2.1515 1.7476-2.1472-1.4227-2.1472-3.0866 0-3.2842 3.3252-9.6953 3.8918-13.823 0.5664-4.1255 3.8572-22.546-3.2208-22.948z"/>
   <path class="fil3" d="m198.44 62.014c0 2.3992 1.5551 5.2812 2.2814 7.381 0.1903 0.5502 2.1979 3.8337 2.013 1.6104-0.0825-0.9914-0.9677-2.814-1.4762-3.2208-0.6904-0.5522-0.6511-3.9691 0.2684-4.4286 2.5724-1.2858-2.684-2.2308-3.0866-1.342z"/>
   <path class="fil5" d="m204.35 62.417c-0.0761 0.5858 0.3063 0.6655 0.5368 1.0736 0.3911 0.6921 1.5287 4.6708 2.8182 3.6234 0.1427-0.1156 0.4897-3.1263 0.5368-3.4892 0.0265-0.205 0.1855-0.4093 0.1342-0.8052-0.1303-1.0059-3.9751-0.7944-4.026-0.4026z"/>
   <path class="fil3" d="m257.49 53.023c-4.1264 0.3174 2.9922 3.7974 3.2208 4.026 3.3458 3.3458 4.697 7.2749 4.697 12.346 0 4.689 2.6398 2.2963 3.355-1.2078 0.7179-3.5178 1.7613-8.9114-0.1342-11.944-1.5525-2.4839-0.703-2.258-4.2944-3.0866-2.1182-0.4886-4.0677-0.2684-6.8442-0.1342z"/>
   <path class="fil1" d="m255.62 62.82c0-11.195 7.0745 1.5919 7.6494 3.0866 2.4021 6.2455 2.6489 25.971-0.2684 31.805-0.9088 1.8178-1.3623 3.4733-2.2814 5.0996-0.6924 1.2254-1.9544 2.1105-3.0866 2.8182-0.8856 0.5535 2.1763-17.494 1.8788-21.204-0.5578-6.9545-3.8918-15.304-3.8918-21.606z"/>
   <path class="fil3" d="m215.22 60.001c-0.9205 0.0708-2.684 0.7201-2.684 1.4762 0 0.3581 1.157 1.5596 1.6104 2.013 1.1965 1.1965-0.1997 2.8729 2.2814 2.5498 1.5323-0.1996 3.5524-4.73 2.8182-5.9048-0.4837-0.7738-0.2955-0.671-1.342-0.671-1.7851 0-2.9072 1.0736-4.5628 1.0736l1.8788-0.5368z"/>
   <path class="fil1" d="m208.91 75.3c5.6734-0.4052 5.1501-0.486 7.2468 4.9654 2.7442 7.1346 3.5895 16.434 7.5152 22.814 1.3354 2.1703 6.7624 12.247 1.6104 5.9048-7.1882-8.8492-12.122-22.678-15.701-33.416l-0.671-0.2684z"/>
   <path class="fil1" d="m109.74 77.85c2.0411-6.6338 7.9561 4.8768 8.723 6.8442 4.2865 10.997 4.3532 22.916 11.004 32.476 2.022 2.9064 15.94 11.799 7.1126 8.8572-11.095-3.6974-11.609-13.016-16.372-22.546-1.1307-2.2622-4.1602-11.942-4.1602-14.091 0-3.7005-5.7706-10.129-5.7706-11.004l-0.5368-0.5368z"/>
   <path class="fil3" d="m205.16 75.703c-1.2572-2.3349 1.6608-1.4928 3.2208-2.4156 0.8519-0.5038 1.8464-1.2394 2.5498-1.6104 0.7001-0.3694 2.3228-1.8581 2.4156-2.8182 0.3218-3.3259 2.0354-0.8676 1.0736 0.671-1.1106 1.7769-0.9152 4.3987-3.0866 5.2338-0.4825 0.1856-0.5747 0.671-1.4762 0.671-1.0053 0-4.4286 0.5466-4.697 0.2684z"/>
   <path class="fil6" d="m171.88 59.43c10.397 1.7102 24.915 4.9495 25.465 17.981 0.3174 41.812-26.833 47.638-37.672 47.853-5.9955 0.1192-17.523 1.934-23.258-4.293-11.338-12.309-14.419-38.877-8.0311-51.903 4.7973-9.7828 19.993-13.505 43.496-9.6385z"/>
   <path class="fil7" d="m256.99 58.85c5.4976 3.2413 5.7667 10.863 6.179 19.053 0.3996 7.9387-0.1519 18.318-2.4994 22.951-5.5078 10.869-17.445 13.983-24.769 10.738-8.0967-3.5876-10.476-13.042-13.17-21.686-2.4581-7.8869-4.0747-16.838-2.2106-21.518 2.8076-7.0488 10.408-9.6664 18.555-10.971 5.5739-0.8926 11.735-2.2103 17.916 1.4337z"/>
   <path class="fil8" d="m189.86 111.4c-1.0641 1.3833-1.3579 2.6639-2.8182 3.4892-1.6369 0.925-3.6069 3.2555-5.2338 3.8918-0.5737 0.2243-1.993 0.7463-2.2814 1.2078-1.2141 1.9424 2.9943 0.1279 3.2208 0 2.025-1.1444 3.502-2.775 5.2338-4.1602 0.7524-0.6019 1.3874-1.5111 2.013-2.2814 0.4106-0.5054 0.671-0.6922 0.671-1.4762 0-0.6064-0.3573-1.6122-0.8052-0.671z"/>
   <path class="fil9" d="m125.71 101.2c-1.1813-2.0252 0.0886 2.8875 0.2684 3.355 1.2612 3.2793 1.5063 6.7877 3.4892 9.6624 0.3062 0.4439 3.2208 6.0148 3.2208 3.0866 0-0.2458-1.87-2.9116-2.1472-3.355-2.2714-3.6341-3.1411-8.2153-4.8312-12.749z"/>
   <path class="fil5" d="m262.86 100.4c-0.8096 0.9715-0.8163 2.3054-1.7446 2.9524-0.855 0.5958-3.0866 3.0973-3.0866 4.2944 0 0.2983-0.4728 1.6896 0.1342 1.7446 1.4335 0.1301 4.579-3.7297 4.8312-4.697 0.1298-0.4978 0.3415-1.1638 0.5368-1.4762 0.41-0.6562 0.5368-1.654 0.5368-2.5498 0-0.5773 0.2403-1.0736-0.4026-1.0736-0.6411 0-0.3157 0.6868-0.8052 0.8052z"/>
   <path class="fil3" d="m258.57 57.854c-0.7667-0.5111-1.826-0.8206-2.4156-1.342-1.0879-0.9623-2.6414-2.6205-4.1602-2.8182-0.6288-0.0819-3.8429-0.979-2.4156 0.8052 0.5401 0.6753 1.9384 1.0892 2.5498 1.4762 1.3269 0.8401 3.0262 1.9157 4.4286 2.2814 0.1874 0.0489 0.7542 0.2443 0.9394 0.2684 0.8086 0.1052 0.6403 0.5368 1.6104 0.5368 0.5863 0 0.2564-1.2078-0.5368-1.2078z"/>
   <path class="fil0" d="m106.12 62.014c-6.2473 1.4416-13.964 2.689-19.056 6.1732-3.615 2.4736-10.28 2.3107-14.225 4.8312-5.1557 3.2938-12.382 5.1355-15.836 8.5888-4.6649 4.6649 7.9348 2.3018 9.9308 1.0736 8.3636-5.1467 17.23-7.9418 25.498-12.615 3.4311-1.9393 6.2052-3.2814 9.6624-4.8312 0.7814-0.3502 9.5776-3.2208 4.026-3.2208z"/>
   <path class="fil0" d="m33.648 116.5c-3.4883 5.0387 1.9739 19.53 2.9524 24.424 0.4259 2.1303 2.4683 4.9366 3.4892 6.9784 1.2553 2.5108 1.7823 3.9812 3.4892 5.368 2.4591 1.9981 0.4688-7.6816-0.2684-8.5888-1.4319-1.7624-5.0996-10.842-5.0996-13.152 0-4.6137-4.026-8.4399-4.5628-15.03z"/>
   <path class="fil2" d="m268.3 64.555l-0.4033-7.7971c-0.9004-2.169-4.1955-3.4337-8.4221-4.1116-6.3883-1.0244-14.763-0.6261-20.657 0.0469-5.0516 0.5768-10.709 2.9886-16.134 5.3014-5.3958 2.3003-10.568 4.5055-14.914 4.8284-7.7715 0.5775-13.05-1.2253-19.188-3.3222-5.1842-1.7707-10.999-3.757-19.492-4.6339-12.597-1.3007-26.184-0.9419-37.464 0.2287-13.276 1.3778-23.212 3.7449-24.289 5.7584-0.1263 0.2367-0.3344 0.4019-0.5709 0.4787l6e-4 0.0017c-1.3545 0.4415-2.6984 0.8789-4.0307 1.3123-33.243 10.816-59.391 19.324-71.397 37.118-7.9944 11.848 3.9212 39.697 9.7955 53.426 0.5433 1.2699 1.039 2.4284 1.3026 3.0556 0.0208 0.0497 0.0375 0.0998 0.0499 0.1505 0.3188 0.9642 0.6508 1.4645 0.9399 1.5728 0.0058 0.0022 0.0215-5e-3 0.0447-0.0204 0.1455-0.0964 0.2959-0.3036 0.4384-0.6144 0.67-1.4607 0.8062-4.3906-0.4694-8.329-0.8569-2.6456-2.2271-5.8584-3.6761-9.256-1.6632-3.9001-3.4298-8.0423-4.6849-11.953-1.536-4.7856-2.5006-9.3058-2.9529-13.052-0.515-4.2634-0.362-7.6071 0.3684-9.302 1.4526-3.3703 5.4389-2.8616 9.3059-2.3682 2.2476 0.2868 4.4481 0.5676 5.652-0.0206l-3e-4 -4e-4c12.042-7.2622 25.291-12.923 38.538-18.583 6.6184-2.8277 13.237-5.6556 19.633-8.6495 0.1178-0.0551 0.2411-0.0849 0.3634-0.0921l-1e-4 -0.0017c7.7617-0.4762 10.298 8.8585 13.324 19.996 2.2569 8.3066 4.8004 17.667 9.9323 24.335 2.3648 3.0726 6.3553 4.9927 10.942 6.1316 6.2035 1.5402 13.467 1.6427 19.369 1.2212 4.109-0.2934 12.173-1.4704 19.473-4.787 4.6634-2.1185 9.0055-5.1097 11.755-9.2983 1.7348-2.643 3.3985-5.5914 4.8158-8.6388 1.2978-2.7904 2.3912-5.6657 3.1456-8.4669 0.6673-2.4773 1.1906-4.8261 1.6805-7.025 1.7687-7.9378 3.1335-14.062 8.2629-14.391 2.9702-0.1907 3.6448 2.5296 4.6013 6.3895 0.3335 1.3455 0.7067 2.8512 1.2251 4.3892 1.2139 3.602 2.9262 7.6797 4.9371 11.727 1.9065 3.837 4.074 7.6325 6.3315 10.954 1.6142 2.3746 4.2559 4.1908 7.1769 5.446 3.5309 1.5172 7.4317 2.1999 10.435 2.0589 2.5083-0.1177 6.4399-1.4227 10.184-3.5726 3.0847-1.7714 6.0119-4.1053 7.8618-6.8029 1.8781-2.7388 3.2087-7.5089 4.0779-12.871 1.1038-6.8101 1.4494-14.524 1.2256-20.308-0.0501-1.2998 0.3081-2.3027 0.7072-3.4195 0.4086-1.1435 0.8667-2.4262 0.8489-4.2393h-3e-4zm1.5803-8.065l0.4119 7.9634-0.0014 1e-4 0.0014 0.039c0.03 2.2086-0.4926 3.6709-0.958 4.9736-0.3334 0.9331-0.6327 1.771-0.5978 2.6773 0.2279 5.892-0.1242 13.752-1.249 20.691-0.9125 5.6291-2.3423 10.685-4.3983 13.683-2.0316 2.9626-5.1982 5.4981-8.518 7.4045-4.0142 2.3052-8.2978 3.7076-11.082 3.8382-3.2798 0.1539-7.5132-0.5802-11.318-2.2151-3.2326-1.3891-6.1832-3.4388-8.0363-6.1648-2.3188-3.4113-4.5335-7.2865-6.4721-11.188-2.0464-4.1187-3.794-8.2836-5.0387-11.977-0.5497-1.631-0.9312-3.17-1.2721-4.5454-0.7207-2.9083-1.2288-4.9579-2.5387-4.8739-3.6359 0.2336-4.8583 5.7189-6.4425 12.829-0.507 2.2754-1.0485 4.7059-1.6963 7.111-0.7849 2.9144-1.9187 5.8979-3.2626 8.7873-1.4644 3.1487-3.1763 6.1843-4.9566 8.8966-2.9853 4.5482-7.6337 7.766-12.606 10.025-7.5655 3.4369-15.906 4.6555-20.153 4.9588-6.0638 0.433-13.547 0.3228-19.986-1.2758-4.9909-1.2392-9.3706-3.3771-12.044-6.8504-5.383-6.9943-7.9796-16.55-10.284-25.03-2.7671-10.184-5.0915-18.734-11.1-18.534-6.4496 3.0138-12.98 5.8039-19.51 8.5939-13.175 5.6288-26.349 11.258-38.288 18.458l-0.0015-0.0024c-0.0173 0.0104-0.0351 0.0202-0.0532 0.0297-1.7444 0.9143-4.2836 0.5904-6.8782 0.2593-3.1322-0.3997-6.3612-0.8117-7.2199 1.1806-0.5973 1.3859-0.6936 4.3579-0.22 8.2786 0.4398 3.6416 1.3764 8.0324 2.8669 12.676 1.2221 3.8076 2.9735 7.9143 4.6225 11.781 1.4635 3.4315 2.8473 6.6763 3.7385 9.4278 1.4462 4.4651 1.2195 7.9444 0.3836 9.7666-0.3032 0.661-0.6993 1.1521-1.1494 1.4502-0.5726 0.3792-1.2027 0.4629-1.8417 0.2236-0.8272-0.3099-1.6089-1.2239-2.1395-2.8202-0.5047-1.2008-0.8838-2.087-1.2935-3.0447-6.0154-14.059-18.217-42.577-9.6157-55.324 12.389-18.361 38.826-26.963 72.436-37.899 1.2346-0.4016 2.4793-0.8065 3.733-1.2151 2.1575-2.4552 12.362-5.0511 25.571-6.422 11.396-1.1826 25.128-1.5443 37.87-0.2287 8.7263 0.901 14.649 2.9241 19.93 4.7277 5.9326 2.0264 11.033 3.7686 18.407 3.2206 4.013-0.2982 9.0346-2.439 14.273-4.6722 5.5582-2.3697 11.354-4.8407 16.688-5.4498 6.0188-0.6873 14.595-1.0898 21.196-0.0313 4.989 0.8001 8.9172 2.4684 10.034 5.5195l-1e-3 4e-4c0.0337 0.0917 0.0544 0.1899 0.0596 0.2926z"/>
</svg>